<svg id="visual" viewBox="0 0 960 540" width="960" height="540" xmlns="http://www.w3.org/2000/svg" xmlns:xlink="http://www.w3.org/1999/xlink" version="1.1"><path d="M0 353L17.8 353.2C35.7 353.3 71.3 353.7 106.8 371.3C142.3 389 177.7 424 213.2 439.7C248.7 455.3 284.3 451.7 320 435.2C355.7 418.7 391.3 389.3 426.8 383.3C462.3 377.3 497.7 394.7 533.2 397.3C568.7 400 604.3 388 640 381C675.7 374 711.3 372 746.8 375.2C782.3 378.3 817.7 386.7 853.2 399.3C888.7 412 924.3 429 942.2 437.5L960 446L960 541L942.2 541C924.3 541 888.7 541 853.2 541C817.7 541 782.3 541 746.8 541C711.3 541 675.7 541 640 541C604.3 541 568.7 541 533.2 541C497.7 541 462.3 541 426.8 541C391.3 541 355.7 541 320 541C284.3 541 248.7 541 213.2 541C177.7 541 142.3 541 106.8 541C71.3 541 35.7 541 17.8 541L0 541Z" fill="#89c5be"></path><path d="M0 412L17.8 407.8C35.7 403.7 71.3 395.3 106.8 398.8C142.3 402.3 177.7 417.7 213.2 426.2C248.7 434.7 284.3 436.3 320 439.8C355.7 443.3 391.3 448.7 426.8 450C462.3 451.3 497.7 448.7 533.2 441.8C568.7 435 604.3 424 640 419.7C675.7 415.3 711.3 417.7 746.8 428.3C782.3 439 817.7 458 853.2 464.2C888.7 470.3 924.3 463.7 942.2 460.3L960 457L960 541L942.2 541C924.3 541 888.7 541 853.2 541C817.7 541 782.3 541 746.8 541C711.3 541 675.7 541 640 541C604.3 541 568.7 541 533.2 541C497.7 541 462.3 541 426.8 541C391.3 541 355.7 541 320 541C284.3 541 248.7 541 213.2 541C177.7 541 142.3 541 106.8 541C71.3 541 35.7 541 17.8 541L0 541Z" fill="#64a19a"></path><path d="M0 477L17.8 474.3C35.7 471.7 71.3 466.3 106.8 467.3C142.3 468.3 177.7 475.7 213.2 476.7C248.7 477.7 284.3 472.3 320 475.7C355.7 479 391.3 491 426.8 486.7C462.3 482.3 497.7 461.7 533.2 460.7C568.7 459.7 604.3 478.3 640 476.5C675.7 474.7 711.3 452.3 746.8 450.2C782.3 448 817.7 466 853.2 466.3C888.7 466.7 924.3 449.3 942.2 440.7L960 432L960 541L942.2 541C924.3 541 888.7 541 853.2 541C817.7 541 782.3 541 746.8 541C711.3 541 675.7 541 640 541C604.3 541 568.7 541 533.2 541C497.7 541 462.3 541 426.8 541C391.3 541 355.7 541 320 541C284.3 541 248.7 541 213.2 541C177.7 541 142.3 541 106.8 541C71.3 541 35.7 541 17.8 541L0 541Z" fill="#3f7f78"></path><path d="M0 509L17.8 507C35.7 505 71.3 501 106.8 501.8C142.3 502.7 177.7 508.3 213.2 505.2C248.7 502 284.3 490 320 488C355.7 486 391.3 494 426.8 497.3C462.3 500.7 497.7 499.3 533.2 496.2C568.7 493 604.3 488 640 490.3C675.7 492.7 711.3 502.3 746.8 506.7C782.3 511 817.7 510 853.2 505.7C888.7 501.3 924.3 493.7 942.2 489.8L960 486L960 541L942.2 541C924.3 541 888.7 541 853.2 541C817.7 541 782.3 541 746.8 541C711.3 541 675.7 541 640 541C604.3 541 568.7 541 533.2 541C497.7 541 462.3 541 426.8 541C391.3 541 355.7 541 320 541C284.3 541 248.7 541 213.2 541C177.7 541 142.3 541 106.8 541C71.3 541 35.7 541 17.8 541L0 541Z" fill="#165e57"></path></svg>