<svg id="visual" viewBox="0 0 960 540" width="960" height="540" xmlns="http://www.w3.org/2000/svg" xmlns:xlink="http://www.w3.org/1999/xlink" version="1.1"><rect x="0" y="0" width="960" height="540" fill="#021312"></rect><defs><linearGradient id="grad1_0" x1="43.8%" y1="0%" x2="100%" y2="100%"><stop offset="14.444444444444446%" stop-color="#1a2b24" stop-opacity="1"></stop><stop offset="85.55555555555554%" stop-color="#1a2b24" stop-opacity="1"></stop></linearGradient></defs><defs><linearGradient id="grad1_1" x1="43.8%" y1="0%" x2="100%" y2="100%"><stop offset="14.444444444444446%" stop-color="#1a2b24" stop-opacity="1"></stop><stop offset="85.55555555555554%" stop-color="#13231f" stop-opacity="1"></stop></linearGradient></defs><defs><linearGradient id="grad1_2" x1="43.8%" y1="0%" x2="100%" y2="100%"><stop offset="14.444444444444446%" stop-color="#0c1b19" stop-opacity="1"></stop><stop offset="85.55555555555554%" stop-color="#13231f" stop-opacity="1"></stop></linearGradient></defs><defs><linearGradient id="grad1_3" x1="43.8%" y1="0%" x2="100%" y2="100%"><stop offset="14.444444444444446%" stop-color="#0c1b19" stop-opacity="1"></stop><stop offset="85.55555555555554%" stop-color="#021312" stop-opacity="1"></stop></linearGradient></defs><defs><linearGradient id="grad2_0" x1="0%" y1="0%" x2="56.3%" y2="100%"><stop offset="14.444444444444446%" stop-color="#1a2b24" stop-opacity="1"></stop><stop offset="85.55555555555554%" stop-color="#1a2b24" stop-opacity="1"></stop></linearGradient></defs><defs><linearGradient id="grad2_1" x1="0%" y1="0%" x2="56.3%" y2="100%"><stop offset="14.444444444444446%" stop-color="#13231f" stop-opacity="1"></stop><stop offset="85.55555555555554%" stop-color="#1a2b24" stop-opacity="1"></stop></linearGradient></defs><defs><linearGradient id="grad2_2" x1="0%" y1="0%" x2="56.3%" y2="100%"><stop offset="14.444444444444446%" stop-color="#13231f" stop-opacity="1"></stop><stop offset="85.55555555555554%" stop-color="#0c1b19" stop-opacity="1"></stop></linearGradient></defs><defs><linearGradient id="grad2_3" x1="0%" y1="0%" x2="56.3%" y2="100%"><stop offset="14.444444444444446%" stop-color="#021312" stop-opacity="1"></stop><stop offset="85.55555555555554%" stop-color="#0c1b19" stop-opacity="1"></stop></linearGradient></defs><g transform="translate(960, 0)"><path d="M0 342C-17.5 347.3 -35 352.5 -57.4 362.5C-79.8 372.5 -107.1 387.1 -120.8 371.9C-134.5 356.6 -134.6 311.3 -156.6 307.4C-178.7 303.5 -222.7 340.9 -252.7 347.9C-282.8 354.9 -298.9 331.5 -305.5 305.5C-312 279.5 -309 250.9 -316.3 229.8C-323.7 208.8 -341.5 195.3 -347.5 177.1C-353.5 158.8 -347.9 135.7 -359.5 116.8C-371.1 98 -400.1 83.4 -407.9 64.6C-415.7 45.8 -402.4 22.9 -389 0L0 0Z" fill="#071716"></path><path d="M0 256.5C-13.1 260.4 -26.3 264.4 -43.1 271.9C-59.9 279.3 -80.4 290.4 -90.6 278.9C-100.9 267.4 -100.9 233.5 -117.5 230.5C-134 227.6 -167 255.7 -189.6 260.9C-212.1 266.2 -224.2 248.6 -229.1 229.1C-234 209.6 -231.7 188.1 -237.2 172.4C-242.8 156.6 -256.1 146.5 -260.6 132.8C-265.2 119.1 -260.9 101.7 -269.6 87.6C-278.4 73.5 -300.1 62.5 -305.9 48.5C-311.8 34.4 -301.8 17.2 -291.7 0L0 0Z" fill="#101f1c"></path><path d="M0 171C-8.8 173.6 -17.5 176.3 -28.7 181.2C-39.9 186.2 -53.6 193.6 -60.4 185.9C-67.3 178.3 -67.3 155.7 -78.3 153.7C-89.3 151.7 -111.3 170.4 -126.4 173.9C-141.4 177.4 -149.5 165.7 -152.7 152.7C-156 139.7 -154.5 125.4 -158.2 114.9C-161.8 104.4 -170.7 97.7 -173.7 88.5C-176.8 79.4 -173.9 67.8 -179.7 58.4C-185.6 49 -200.1 41.7 -204 32.3C-207.9 22.9 -201.2 11.5 -194.5 0L0 0Z" fill="#162721"></path><path d="M0 85.5C-4.4 86.8 -8.8 88.1 -14.4 90.6C-20 93.1 -26.8 96.8 -30.2 93C-33.6 89.1 -33.6 77.8 -39.2 76.8C-44.7 75.9 -55.7 85.2 -63.2 87C-70.7 88.7 -74.7 82.9 -76.4 76.4C-78 69.9 -77.2 62.7 -79.1 57.5C-80.9 52.2 -85.4 48.8 -86.9 44.3C-88.4 39.7 -87 33.9 -89.9 29.2C-92.8 24.5 -100 20.8 -102 16.2C-103.9 11.5 -100.6 5.7 -97.2 0L0 0Z" fill="#1a2b24"></path></g><g transform="translate(0, 540)"><path d="M0 -416C18.8 -391.1 37.6 -366.2 56 -353.6C74.4 -340.9 92.5 -340.5 109.4 -336.7C126.3 -332.8 142.1 -325.5 168.9 -331.5C195.6 -337.4 233.3 -356.6 253.9 -349.5C274.5 -342.4 278 -308.9 283.5 -283.5C289.1 -258.2 296.5 -241 314.7 -228.6C332.9 -216.3 361.7 -208.9 379.6 -193.4C397.4 -177.9 404.2 -154.2 402.3 -130.7C400.4 -107.3 389.8 -84 393.1 -62.3C396.4 -40.5 413.7 -20.3 431 0L0 0Z" fill="#071716"></path><path d="M0 -312C14.1 -293.3 28.2 -274.7 42 -265.2C55.8 -255.7 69.3 -255.4 82 -252.5C94.7 -249.6 106.6 -244.1 126.7 -248.6C146.7 -253.1 175 -267.5 190.4 -262.1C205.9 -256.8 208.5 -231.7 212.7 -212.7C216.8 -193.6 222.4 -180.7 236 -171.5C249.7 -162.3 271.3 -156.7 284.7 -145C298.1 -133.4 303.2 -115.6 301.7 -98C300.3 -80.4 292.3 -63 294.8 -46.7C297.3 -30.4 310.3 -15.2 323.3 0L0 0Z" fill="#101f1c"></path><path d="M0 -208C9.4 -195.6 18.8 -183.1 28 -176.8C37.2 -170.5 46.2 -170.3 54.7 -168.3C63.2 -166.4 71.1 -162.8 84.4 -165.7C97.8 -168.7 116.7 -178.3 127 -174.7C137.3 -171.2 139 -154.5 141.8 -141.8C144.5 -129.1 148.3 -120.5 157.4 -114.3C166.4 -108.2 180.9 -104.5 189.8 -96.7C198.7 -88.9 202.1 -77.1 201.1 -65.4C200.2 -53.6 194.9 -42 196.5 -31.1C198.2 -20.3 206.9 -10.1 215.5 0L0 0Z" fill="#162721"></path><path d="M0 -104C4.7 -97.8 9.4 -91.6 14 -88.4C18.6 -85.2 23.1 -85.1 27.3 -84.2C31.6 -83.2 35.5 -81.4 42.2 -82.9C48.9 -84.4 58.3 -89.2 63.5 -87.4C68.6 -85.6 69.5 -77.2 70.9 -70.9C72.3 -64.5 74.1 -60.2 78.7 -57.2C83.2 -54.1 90.4 -52.2 94.9 -48.3C99.4 -44.5 101.1 -38.5 100.6 -32.7C100.1 -26.8 97.4 -21 98.3 -15.6C99.1 -10.1 103.4 -5.1 107.8 0L0 0Z" fill="#1a2b24"></path></g></svg>