<svg id="visual" viewBox="0 0 960 540" width="960" height="540" xmlns="http://www.w3.org/2000/svg" xmlns:xlink="http://www.w3.org/1999/xlink" version="1.1"><path d="M0 151L20 152.2C40 153.3 80 155.7 120 161.3C160 167 200 176 240 166.5C280 157 320 129 360 123.8C400 118.7 440 136.3 480 143.5C520 150.7 560 147.3 600 145C640 142.7 680 141.3 720 132.5C760 123.7 800 107.3 840 96.2C880 85 920 79 940 76L960 73L960 0L940 0C920 0 880 0 840 0C800 0 760 0 720 0C680 0 640 0 600 0C560 0 520 0 480 0C440 0 400 0 360 0C320 0 280 0 240 0C200 0 160 0 120 0C80 0 40 0 20 0L0 0Z" fill="#165e57"></path><path d="M0 125L20 113.7C40 102.3 80 79.7 120 67.2C160 54.7 200 52.3 240 52.3C280 52.3 320 54.7 360 67.8C400 81 440 105 480 117.8C520 130.7 560 132.3 600 125.8C640 119.3 680 104.7 720 95.3C760 86 800 82 840 83.2C880 84.3 920 90.7 940 93.8L960 97L960 0L940 0C920 0 880 0 840 0C800 0 760 0 720 0C680 0 640 0 600 0C560 0 520 0 480 0C440 0 400 0 360 0C320 0 280 0 240 0C200 0 160 0 120 0C80 0 40 0 20 0L0 0Z" fill="#519089"></path><path d="M0 77L20 71.2C40 65.3 80 53.7 120 50.5C160 47.3 200 52.7 240 57.8C280 63 320 68 360 72.7C400 77.3 440 81.7 480 72.5C520 63.3 560 40.7 600 40C640 39.3 680 60.7 720 68.3C760 76 800 70 840 65.8C880 61.7 920 59.3 940 58.2L960 57L960 0L940 0C920 0 880 0 840 0C800 0 760 0 720 0C680 0 640 0 600 0C560 0 520 0 480 0C440 0 400 0 360 0C320 0 280 0 240 0C200 0 160 0 120 0C80 0 40 0 20 0L0 0Z" fill="#89c5be"></path></svg>